<svg width="40" height="40" viewBox="0 0 40 40" fill="none" xmlns="http://www.w3.org/2000/svg">
<g id="button">
<rect id="Rectangle 1186" width="40" height="40" rx="20" fill="white"/>
<path id="Arrow 4" d="M15.2189 25.2193C14.9455 25.4926 14.9455 25.9358 15.2189 26.2092C15.4923 26.4826 15.9355 26.4826 16.2088 26.2092L15.2189 25.2193ZM24.9853 17.1428C24.9853 16.7562 24.6719 16.4428 24.2853 16.4428L17.9853 16.4428C17.5987 16.4428 17.2853 16.7562 17.2853 17.1428C17.2853 17.5294 17.5987 17.8428 17.9853 17.8428L23.5853 17.8428L23.5853 23.4428C23.5853 23.8294 23.8987 24.1428 24.2853 24.1428C24.6719 24.1428 24.9853 23.8294 24.9853 23.4428L24.9853 17.1428ZM16.2088 26.2092L24.7803 17.6378L23.7903 16.6478L15.2189 25.2193L16.2088 26.2092Z" fill="#2B2D42"/>
</g>
</svg>
