<svg width="114" height="114" viewBox="0 0 114 114" fill="none" xmlns="http://www.w3.org/2000/svg">
<g id="button">
<g id="Rectangle 1186" filter="url(#filter0_d_149_878)">
<rect x="24" y="20" width="70" height="70" rx="35" fill="white"/>
</g>
<path id="Arrow 4" d="M48 54.3C47.6134 54.3 47.3 54.6134 47.3 55C47.3 55.3866 47.6134 55.7 48 55.7L48 54.3ZM69.7082 55.495C69.9815 55.2216 69.9815 54.7784 69.7082 54.505L65.2534 50.0503C64.98 49.7769 64.5368 49.7769 64.2635 50.0503C63.9901 50.3236 63.9901 50.7668 64.2635 51.0402L68.2233 55L64.2635 58.9598C63.9901 59.2332 63.9901 59.6764 64.2635 59.9497C64.5368 60.2231 64.98 60.2231 65.2534 59.9497L69.7082 55.495ZM48 55.7H69.2132L69.2132 54.3H48L48 55.7Z" fill="#2B2D42"/>
</g>
<defs>
<filter id="filter0_d_149_878" x="0" y="0" width="114" height="114" filterUnits="userSpaceOnUse" color-interpolation-filters="sRGB">
<feFlood flood-opacity="0" result="BackgroundImageFix"/>
<feColorMatrix in="SourceAlpha" type="matrix" values="0 0 0 0 0 0 0 0 0 0 0 0 0 0 0 0 0 0 127 0" result="hardAlpha"/>
<feOffset dx="-2" dy="2"/>
<feGaussianBlur stdDeviation="11"/>
<feComposite in2="hardAlpha" operator="out"/>
<feColorMatrix type="matrix" values="0 0 0 0 0 0 0 0 0 0 0 0 0 0 0 0 0 0 0.25 0"/>
<feBlend mode="normal" in2="BackgroundImageFix" result="effect1_dropShadow_149_878"/>
<feBlend mode="normal" in="SourceGraphic" in2="effect1_dropShadow_149_878" result="shape"/>
</filter>
</defs>
</svg>
